<svg width="69" height="43" viewBox="0 0 69 43" fill="none" xmlns="http://www.w3.org/2000/svg">
<g opacity="0.5">
<path opacity="0.5" d="M18.3709 34.584L20.3817 39.3848H20.4069L22.3925 34.584H22.855V39.7468H22.5434V34.9711H22.5182L20.5577 39.7468H20.2561L18.2704 34.9711H18.2453V39.7468H17.9336V34.584H18.3709Z" fill="black"/>
<path opacity="0.5" d="M30.2443 37.1681C30.2443 38.6661 29.3645 39.8776 27.7911 39.8776C26.2679 39.8776 25.3379 38.7164 25.3379 37.1681C25.3379 35.7253 26.1875 34.4585 27.7911 34.4585C29.2891 34.4836 30.2443 35.6197 30.2443 37.1681ZM27.7911 39.5911C29.083 39.5911 29.9326 38.5354 29.9326 37.163C29.9326 35.9264 29.2087 34.735 27.7911 34.735C26.4991 34.735 25.6496 35.7655 25.6496 37.163C25.6496 38.455 26.3986 39.5911 27.7911 39.5911Z" fill="black"/>
<path opacity="0.5" d="M34.8345 34.584C35.8399 34.584 36.4331 35.1018 36.4331 35.9262C36.4331 36.444 36.0711 36.9316 35.4277 37.0372L35.4528 37.0623C36.1767 37.1377 36.6141 37.6806 36.6141 38.3291C36.6141 39.2591 35.8902 39.7719 34.8596 39.7719H32.7734V34.6091H34.8345V34.584ZM34.8345 36.9316C35.6087 36.9316 36.1013 36.5445 36.1013 35.8759C36.1013 35.2073 35.5835 34.8705 34.7842 34.8705H33.0549V36.9366H34.8345V36.9316ZM34.8345 39.4904C35.6841 39.4904 36.2773 39.1033 36.2773 38.3291C36.2773 37.6052 35.7092 37.2182 34.8345 37.2182H33.0549V39.4904H34.8345Z" fill="black"/>
<path opacity="0.5" d="M39.0918 34.584H39.4035V39.7468H39.0918V34.584Z" fill="black"/>
<path opacity="0.5" d="M42.115 34.584H42.4267V39.4602H45.3423V39.7417H42.0898V34.584H42.115Z" fill="black"/>
<path opacity="0.5" d="M51.0149 34.584V34.8655H47.8681V36.9316H50.834V37.2131H47.8681V39.4854H51.0401V39.7669H47.5312V34.6091H51.0149V34.584Z" fill="black"/>
</g>
<path d="M32.0769 14.9435C32.1523 14.9938 32.2579 14.9435 32.2579 14.8681C32.2327 13.1891 31.9211 11.8468 31.3279 10.7912C30.6291 9.55451 29.6489 8.93115 28.362 8.93115C27.1756 8.93115 26.2456 9.57461 25.577 10.8666C24.9838 11.9775 24.6973 13.2393 24.6973 14.6871V29.0594C24.6973 29.165 24.828 29.2153 24.8782 29.1349L26.4768 27.5865C26.502 27.5614 26.502 27.5363 26.502 27.5111V15.6171C26.502 14.3252 26.6327 13.2192 26.889 12.2641C27.251 10.947 27.8442 10.2784 28.6183 10.2784C29.5735 10.2784 30.5035 11.6206 30.6844 13.6314C30.6844 13.6566 30.7096 13.6817 30.7096 13.7068L32.0769 14.9435Z" fill="black"/>
<path d="M37.3674 8.80577C37.3674 8.85604 37.4177 8.91134 37.473 8.91134C39.5894 9.06718 41.0874 9.63523 41.9621 10.6658C42.7865 11.6209 43.2289 13.1441 43.2792 15.2102V23.2887C43.3043 25.1487 42.9173 26.6166 42.118 27.7024C41.3941 28.6827 40.5194 29.2005 39.4587 29.2005C38.4281 29.2005 37.5233 28.7078 36.7994 27.7024C36.0001 26.6166 35.5879 25.1487 35.5879 23.2887V3.48715C35.5879 3.38159 35.6935 3.33132 35.7689 3.41175L37.3423 4.96008C37.3674 4.98521 37.3674 5.01035 37.3674 5.03548V8.80577ZM41.5952 16.1855C41.5952 12.5208 40.2278 10.5099 37.4931 10.148C37.4177 10.148 37.3624 10.1983 37.3624 10.2536V22.6905C37.3624 24.3142 37.5685 25.6313 38.0059 26.5864C38.393 27.436 38.8856 27.8784 39.4788 27.8784C40.0468 27.8784 40.5345 27.4159 40.9517 26.4859C41.3639 25.5559 41.5952 24.2941 41.5952 22.6905V16.1855Z" fill="black"/>
<path d="M64.5955 27.5916C64.5704 27.5664 64.5704 27.5413 64.5704 27.5161V15.7981C64.5704 12.3395 63.203 10.4795 60.4432 10.2482C60.3678 10.2482 60.3125 10.2985 60.3125 10.3538V27.491C60.3125 27.5161 60.3125 27.5413 60.2874 27.5664L58.6888 29.1399C58.6134 29.2153 58.5078 29.165 58.5078 29.0645V9.03672C58.5078 8.98645 58.5581 8.93115 58.6134 8.93115H59.9556C62.0468 8.93115 63.6705 9.57461 64.8569 10.8414C65.8875 11.9524 66.4304 13.3952 66.4304 15.1245V29.0594C66.4304 29.165 66.2997 29.2153 66.2494 29.1349L64.5955 27.5916Z" fill="black"/>
<path d="M53.6996 10.7663C53.031 9.5296 52.0759 8.90625 50.8845 8.90625C49.5925 8.90625 48.6123 9.60501 47.9437 10.9975C47.3253 12.1839 47.0137 13.6819 47.0137 15.5118H47.0891H47.0137V23.4093C47.0137 24.9073 47.3253 26.1943 47.9437 27.2801C48.6123 28.5168 49.5674 29.1401 50.7588 29.1401C52.0507 29.1401 53.031 28.4414 53.6996 27.0489C54.2425 26.0183 54.5492 24.7264 54.6045 23.2032H54.6296V14.6622C54.6045 13.139 54.2928 11.8471 53.6996 10.7663ZM52.7696 22.5597C52.7696 26.0937 52.1261 27.8783 50.8593 27.8783C49.492 27.8783 48.8184 26.0988 48.8184 22.5094V15.542H48.8435C48.8435 12.0079 49.487 10.2233 50.7538 10.2233C52.1211 10.2233 52.7947 12.0029 52.7947 15.5922L52.7696 22.5597Z" fill="black"/>
<path d="M9.85588 23.8518L8.53881 24.9829C8.51367 25.008 8.51367 25.008 8.51367 25.0332C8.23216 26.6318 7.22173 27.8735 6.37217 27.8735C5.00482 27.8735 4.30607 26.0939 4.30607 22.5046V15.5421C4.30607 12.0081 5.00482 10.2235 6.2666 10.2235C7.24687 10.2235 8.202 11.4903 8.48854 13.3453C8.48854 13.3704 8.51367 13.3956 8.51367 13.4207L9.93129 14.6574C9.93129 14.6574 9.98156 14.7076 10.062 14.6825C10.062 14.6825 10.1123 14.6574 10.1123 14.6071C10.1123 13.1342 9.80058 11.8724 9.18226 10.8117C8.51367 9.57501 7.55854 8.95166 6.36714 8.95166C5.0752 8.95166 4.09494 9.65042 3.42634 11.0429C2.83316 12.2042 2.52148 13.6771 2.52148 15.4315L2.54662 23.4597C2.54662 24.9578 2.82813 26.2447 3.42634 27.3305C4.09494 28.5672 5.05007 29.1905 6.24147 29.1905C7.53341 29.1905 8.51367 28.4918 9.18226 27.0993C9.64475 26.2196 9.93129 25.1639 10.0318 23.9524C10.0369 23.8518 9.90615 23.7714 9.85588 23.8518Z" fill="black"/>
<path d="M21.2861 15.4362C21.261 13.6817 21.08 12.1837 20.4617 11.0224C19.7931 9.62991 18.7072 8.93115 17.4404 8.93115C16.2541 8.93115 15.3241 9.54948 14.6253 10.7912C14.0321 11.8468 13.7204 13.0885 13.6953 14.5313C13.6953 14.5313 13.6953 14.5564 13.6953 14.5816C13.6953 14.657 13.7456 14.6871 13.7456 14.6871C13.7959 14.7123 13.8511 14.6871 13.8763 14.6871L15.2185 13.4756C15.2436 13.4505 15.2436 13.4505 15.2436 13.4253C15.5553 11.5151 16.5858 10.2231 17.5661 10.2231C18.8329 10.2231 19.4512 11.9524 19.4764 15.411V16.2857C19.4764 16.336 19.4261 16.3913 19.3708 16.3913C17.3298 16.5471 15.8117 17.271 14.9822 18.3518C14.2583 19.307 13.8713 20.8553 13.7959 22.9466C13.7959 22.9717 13.7959 23.8766 13.7959 23.9017C13.7959 25.7617 15.0074 29.165 17.5108 29.165C18.5413 29.1399 19.4211 28.6221 20.1198 27.6167C20.894 26.4806 21.2811 25.0077 21.2811 23.1778L21.2861 15.4362ZM19.4814 22.8159C19.4814 24.4145 19.3004 25.6561 18.9133 26.556C18.5263 27.4357 18.0889 27.8731 17.546 27.8731C17.0031 27.8731 16.5406 27.4608 16.1787 26.6063C15.8418 25.8321 15.6357 24.8769 15.5855 23.6906L15.6357 22.2729C15.7664 21.0061 16.0731 19.9504 16.5155 19.2265C17.1086 18.2965 18.114 17.6028 19.3557 17.3665C19.4311 17.3665 19.4864 17.4168 19.4864 17.4721L19.4814 22.8159Z" fill="black"/>
</svg>
