<svg width="69" height="43" fill="none" xmlns="http://www.w3.org/2000/svg"><path opacity=".5" d="M18.37 34.584l2.012 4.8h.025l1.985-4.8h.463v5.163h-.312V34.97h-.025l-1.96 4.776h-.302L18.27 34.97h-.025v4.776h-.311v-5.163h.437zm11.874 2.584c0 1.498-.88 2.71-2.453 2.71-1.523 0-2.453-1.162-2.453-2.71 0-1.443.85-2.71 2.453-2.71 1.498.026 2.453 1.162 2.453 2.71zm-2.453 2.423c1.292 0 2.142-1.056 2.142-2.428 0-1.237-.724-2.428-2.142-2.428-1.292 0-2.141 1.03-2.141 2.428 0 1.292.749 2.428 2.141 2.428zm7.043-5.007c1.006 0 1.6.518 1.6 1.342 0 .518-.363 1.006-1.006 1.111l.025.025c.724.076 1.161.619 1.161 1.267 0 .93-.724 1.443-1.754 1.443h-2.087v-5.163h2.061v-.025zm0 2.348c.775 0 1.267-.388 1.267-1.056 0-.669-.517-1.005-1.317-1.005h-1.73v2.066h1.78v-.005zm0 2.558c.85 0 1.443-.387 1.443-1.16 0-.725-.568-1.112-1.443-1.112h-1.78v2.272h1.78zm4.258-4.906h.312v5.163h-.312v-5.163zm3.023 0h.312v4.876h2.915v.282H42.09v-5.158h.025zm8.9 0v.281h-3.147v2.067h2.966v.281h-2.966v2.272h3.172v.282h-3.509v-5.158h3.484v-.025z" fill="#000"/><path d="M32.077 14.944c.075.05.18 0 .18-.076-.024-1.679-.336-3.021-.93-4.077-.698-1.236-1.678-1.86-2.965-1.86-1.186 0-2.116.644-2.785 1.936-.593 1.11-.88 2.372-.88 3.82V29.06c0 .106.131.156.181.076l1.599-1.549c.025-.025.025-.05.025-.075V15.617c0-1.292.13-2.398.387-3.353.362-1.317.955-1.986 1.73-1.986.954 0 1.884 1.343 2.065 3.353 0 .026.026.05.026.076l1.367 1.236zm5.29-6.138c0 .05.05.105.106.105 2.116.156 3.614.724 4.49 1.755.823.955 1.266 2.478 1.316 4.544v8.079c.025 1.86-.362 3.328-1.161 4.413-.724.98-1.599 1.498-2.66 1.498-1.03 0-1.935-.492-2.659-1.498-.799-1.085-1.211-2.553-1.211-4.413V3.487c0-.105.105-.156.18-.075l1.574 1.548c.025.025.025.05.025.075v3.77zm4.228 7.38c0-3.665-1.367-5.676-4.102-6.038-.075 0-.13.05-.13.106V22.69c0 1.623.206 2.94.643 3.895.387.85.88 1.292 1.473 1.292.568 0 1.056-.462 1.473-1.392.412-.93.643-2.192.643-3.796v-6.505zm23.001 11.406c-.026-.026-.026-.05-.026-.076V15.798c0-3.459-1.367-5.319-4.127-5.55-.075 0-.13.05-.13.106V27.49c0 .025 0 .05-.026.075L58.69 29.14c-.076.075-.181.025-.181-.076V9.037c0-.05.05-.106.105-.106h1.343c2.09 0 3.714.644 4.9 1.91 1.032 1.111 1.574 2.554 1.574 4.284v13.934c0 .106-.13.156-.18.076l-1.654-1.543zM53.7 10.766c-.669-1.236-1.624-1.86-2.816-1.86-1.291 0-2.272.699-2.94 2.091-.619 1.187-.93 2.685-.93 4.515h.075-.075v7.897c0 1.498.311 2.785.93 3.871.668 1.237 1.623 1.86 2.815 1.86 1.292 0 2.272-.699 2.94-2.091.544-1.03.85-2.323.906-3.846h.025v-8.54c-.026-1.524-.337-2.816-.93-3.897zm-.93 11.794c0 3.534-.644 5.318-1.91 5.318-1.368 0-2.042-1.78-2.042-5.369v-6.967h.026c0-3.534.643-5.319 1.91-5.319 1.367 0 2.04 1.78 2.04 5.37l-.024 6.967zM9.856 23.852l-1.317 1.13c-.025.026-.025.026-.025.051-.282 1.599-1.292 2.84-2.142 2.84-1.367 0-2.066-1.78-2.066-5.368v-6.963c0-3.534.699-5.319 1.96-5.319.98 0 1.936 1.267 2.223 3.122 0 .025.025.05.025.076l1.417 1.236s.05.05.131.025c0 0 .05-.025.05-.075 0-1.473-.311-2.735-.93-3.795-.668-1.237-1.623-1.86-2.815-1.86-1.292 0-2.272.698-2.94 2.09-.594 1.162-.906 2.635-.906 4.39l.026 8.028c0 1.498.281 2.785.88 3.87.668 1.237 1.623 1.86 2.814 1.86 1.292 0 2.273-.698 2.941-2.09.463-.88.75-1.936.85-3.148.005-.1-.126-.18-.176-.1zm11.43-8.416c-.025-1.754-.206-3.252-.824-4.414-.669-1.392-1.755-2.09-3.022-2.09-1.186 0-2.116.617-2.815 1.86-.593 1.055-.905 2.296-.93 3.74v.05c0 .075.05.105.05.105.05.025.106 0 .131 0l1.343-1.211c.025-.026.025-.026.025-.05.311-1.91 1.342-3.203 2.322-3.203 1.267 0 1.885 1.73 1.91 5.188v.875c0 .05-.05.105-.105.105-2.041.156-3.56.88-4.389 1.96-.724.956-1.11 2.504-1.186 4.596v.955c0 1.86 1.211 5.263 3.715 5.263 1.03-.025 1.91-.543 2.609-1.548.774-1.136 1.161-2.61 1.161-4.44l.005-7.74zm-1.805 7.38c0 1.599-.18 2.84-.568 3.74-.387.88-.824 1.317-1.367 1.317s-1.005-.412-1.367-1.267c-.337-.774-.543-1.73-.593-2.915l.05-1.418c.13-1.267.437-2.323.88-3.046.593-.93 1.598-1.624 2.84-1.86.075 0 .13.05.13.105l-.005 5.344z" fill="#000"/></svg>